<svg width="53" height="35" version="1.1" xmlns="http://www.w3.org/2000/svg" desc="Created with imagetracer.js version 1.2.6" ><path fill="rgb(209,225,230)" stroke="rgb(209,225,230)" stroke-width="1" opacity="0.2980392156862745" d="M 32.5 20 L 39 21.5 L 35.5 22 L 32.5 21 L 32.5 20 Z " /><path fill="rgb(209,225,230)" stroke="rgb(209,225,230)" stroke-width="1" opacity="0.2980392156862745" d="M 29.5 21 Q 33 23 28.5 25 L 29.5 21 Z " /><path fill="rgb(209,225,230)" stroke="rgb(209,225,230)" stroke-width="1" opacity="0.2980392156862745" d="M 25.5 22 L 26.5 24 L 25.5 22 Z " /><path fill="rgb(209,225,230)" stroke="rgb(209,225,230)" stroke-width="1" opacity="0.2980392156862745" d="M 36.5 24 L 39 24.5 L 34.5 26 L 34.5 25 L 36.5 24 Z " /><path fill="rgb(209,225,230)" stroke="rgb(209,225,230)" stroke-width="1" opacity="0.2980392156862745" d="M 19.5 25 L 20.5 27 L 19.5 25 Z " /><path fill="rgb(209,225,230)" stroke="rgb(209,225,230)" stroke-width="1" opacity="0.2980392156862745" d="M 39.5 26 L 39.5 29 Q 37.3 29.8 38 27.5 L 39.5 26 Z " /><path fill="rgb(209,225,230)" stroke="rgb(209,225,230)" stroke-width="1" opacity="0.2980392156862745" d="M 30 30 L 36 31 Q 37.1 33.7 34.5 33 L 30 32 L 30 30 Z " /><path fill="rgb(209,225,230)" stroke="rgb(209,225,230)" stroke-width="1" opacity="0.2980392156862745" d="M 39.5 32 L 38.5 34 L 39.5 32 Z " /><path fill="rgb(237,202,184)" stroke="rgb(237,202,184)" stroke-width="1" opacity="0.6705882352941176" d="M 18.5 2 Q 21 3.2 20 7 L 17.5 8 L 19 5.5 L 18.5 2 Z " /><path fill="rgb(237,202,184)" stroke="rgb(237,202,184)" stroke-width="1" opacity="0.6705882352941176" d="M 16.5 3 L 15.5 5 L 16.5 3 Z " /><path fill="rgb(237,202,184)" stroke="rgb(237,202,184)" stroke-width="1" opacity="0.6705882352941176" d="M 24.5 3 L 23.5 5 L 24.5 3 Z " /><path fill="rgb(237,202,184)" stroke="rgb(237,202,184)" stroke-width="1" opacity="0.6705882352941176" d="M 22.5 6 L 23 8 L 19.5 10 L 22.5 6 Z " /><path fill="rgb(237,202,184)" stroke="rgb(237,202,184)" stroke-width="1" opacity="0.6705882352941176" d="M 16.5 9 L 17 10.5 L 14 12.5 L 16.5 9 Z " /><path fill="rgb(237,202,184)" stroke="rgb(237,202,184)" stroke-width="1" opacity="0.6705882352941176" d="M 0.5 10 L 1.5 12 L 0.5 10 Z " /><path fill="rgb(237,202,184)" stroke="rgb(237,202,184)" stroke-width="1" opacity="0.6705882352941176" d="M 28.5 12 L 27.5 14 L 28.5 12 Z " /><path fill="rgb(237,202,184)" stroke="rgb(237,202,184)" stroke-width="1" opacity="0.6705882352941176" d="M 42.5 12 L 44 14.5 L 42 13.5 L 42.5 12 Z " /><path fill="rgb(237,202,184)" stroke="rgb(237,202,184)" stroke-width="1" opacity="0.6705882352941176" d="M 10.5 16 L 11 18.5 L 10 18.5 L 10.5 16 Z " /><path fill="rgb(237,202,184)" stroke="rgb(237,202,184)" stroke-width="1" opacity="0.6705882352941176" d="M 45.5 16 L 46 17.5 L 44 18.5 L 45.5 16 Z " /><path fill="rgb(237,202,184)" stroke="rgb(237,202,184)" stroke-width="1" opacity="0.6705882352941176" d="M 6.5 19 L 9 19.5 L 6 21 L 6.5 19 Z " /><path fill="rgb(237,202,184)" stroke="rgb(237,202,184)" stroke-width="1" opacity="0.6705882352941176" d="M 12.5 19 L 11.5 21 L 12.5 19 Z " /><path fill="rgb(237,202,184)" stroke="rgb(237,202,184)" stroke-width="1" opacity="0.6705882352941176" d="M 35.5 19 L 38 19.5 Q 35.9 22.8 35.5 19 Z " /><path fill="rgb(239,209,193)" stroke="rgb(239,209,193)" stroke-width="1" opacity="0.3607843137254902" d="M 30.5 3 L 32 5.5 L 31 5.5 L 30.5 3 Z " /><path fill="rgb(239,209,193)" stroke="rgb(239,209,193)" stroke-width="1" opacity="0.3607843137254902" d="M 20.5 4 L 22 6.5 L 21 6.5 L 20.5 4 Z " /><path fill="rgb(239,209,193)" stroke="rgb(239,209,193)" stroke-width="1" opacity="0.3607843137254902" d="M 36.5 6 Q 39.5 7.5 36.5 9 L 36.5 6 Z " /><path fill="rgb(239,209,193)" stroke="rgb(239,209,193)" stroke-width="1" opacity="0.3607843137254902" d="M 27.5 7 L 28.5 9 L 27.5 7 Z " /><path fill="rgb(239,209,193)" stroke="rgb(239,209,193)" stroke-width="1" opacity="0.3607843137254902" d="M 16.5 8 L 17.5 10 L 16.5 8 Z " /><path fill="rgb(239,209,193)" stroke="rgb(239,209,193)" stroke-width="1" opacity="0.3607843137254902" d="M 25.5 9 L 26.5 11 L 25.5 9 Z " /><path fill="rgb(239,209,193)" stroke="rgb(239,209,193)" stroke-width="1" opacity="0.3607843137254902" d="M 39.5 10 L 40 13.5 L 39 13.5 L 39.5 10 Z " /><path fill="rgb(239,209,193)" stroke="rgb(239,209,193)" stroke-width="1" opacity="0.3607843137254902" d="M 23.5 11 L 24.5 13 L 23.5 11 Z " /><path fill="rgb(239,209,193)" stroke="rgb(239,209,193)" stroke-width="1" opacity="0.3607843137254902" d="M 2.5 12 L 1.5 14 L 2.5 12 Z " /><path fill="rgb(239,209,193)" stroke="rgb(239,209,193)" stroke-width="1" opacity="0.3607843137254902" d="M 12.5 12 L 13.5 14 L 12.5 12 Z " /><path fill="rgb(239,209,193)" stroke="rgb(239,209,193)" stroke-width="1" opacity="0.3607843137254902" d="M 16.5 13 L 17.5 17 Q 13 15 16.5 13 Z " /><path fill="rgb(239,209,193)" stroke="rgb(239,209,193)" stroke-width="1" opacity="0.3607843137254902" d="M 37.5 14 L 38.5 16 L 37.5 14 Z " /><path fill="rgb(239,209,193)" stroke="rgb(239,209,193)" stroke-width="1" opacity="0.3607843137254902" d="M 10.5 15 L 11.5 17 L 10.5 15 Z " /><path fill="rgb(239,209,193)" stroke="rgb(239,209,193)" stroke-width="1" opacity="0.3607843137254902" d="M 49.5 17 L 52 17.5 L 51.5 20 L 49.5 17 Z " /><path fill="rgb(239,209,193)" stroke="rgb(239,209,193)" stroke-width="1" opacity="0.3607843137254902" d="M 20.5 19 L 20.5 22 L 18 21.5 L 20.5 19 Z " /><path fill="rgb(239,209,193)" stroke="rgb(239,209,193)" stroke-width="1" opacity="0.3607843137254902" d="M 8.5 23 L 7.5 25 L 8.5 23 Z " /><path fill="rgb(0,0,0)" stroke="rgb(0,0,0)" stroke-width="1" opacity="0" d="M 0 0 L 24 0.5 L 18.5 1 L 10.5 7 L 7.5 6 L 0 9 L 0 0 Z " /><path fill="rgb(0,0,0)" stroke="rgb(0,0,0)" stroke-width="1" opacity="0" d="M 26.5 0 L 53 0 L 53 16.5 L 50 14.5 L 46.5 10 L 37 7 L 37 4 L 35 4 Q 36.1 1.3 33.5 2 Q 32 -0.5 26.5 1 L 26.5 0 Z " /><path fill="rgb(0,0,0)" stroke="rgb(0,0,0)" stroke-width="1" opacity="0" d="M 26.5 3 L 29 4 L 27.5 7 L 25 8.5 L 23.5 11 L 18.5 14 L 23 8.5 Q 22.5 3.5 26.5 3 Z " /><path fill="rgb(0,0,0)" stroke="rgb(0,0,0)" stroke-width="1" opacity="0" d="M 17.5 5 L 16 7.5 L 10.5 14 L 10 11.5 L 17.5 5 Z " /><path fill="rgb(0,0,0)" stroke="rgb(0,0,0)" stroke-width="1" opacity="0" d="M 34.5 8 L 37 9 Q 38 12.8 35.5 14 L 27.5 17 L 33 10.5 L 34.5 8 Z " /><path fill="rgb(0,0,0)" stroke="rgb(0,0,0)" stroke-width="1" opacity="0" d="M 28.5 9 L 30 9.5 L 23.5 15 L 28.5 9 Z " /><path fill="rgb(0,0,0)" stroke="rgb(0,0,0)" stroke-width="1" opacity="0" d="M 40 11 L 42 11.5 L 41 13.5 Q 44 14.8 43 19 L 40 18.5 L 42 15.5 Q 39.3 14.4 40 11 Z " /><path fill="rgb(0,0,0)" stroke="rgb(0,0,0)" stroke-width="1" opacity="0" d="M 45.5 13 L 51 21 L 53 21.5 L 50.5 22 L 45.5 13 Z " /><path fill="rgb(0,0,0)" stroke="rgb(0,0,0)" stroke-width="1" opacity="0" d="M 13.5 15 L 15 15.5 L 12.5 17 L 13.5 15 Z " /><path fill="rgb(0,0,0)" stroke="rgb(0,0,0)" stroke-width="1" opacity="0" d="M 35.5 16 L 38 16.5 L 33.5 20 L 25 22 Q 23.6 18.3 29.5 20 L 35.5 16 Z " /><path fill="rgb(0,0,0)" stroke="rgb(0,0,0)" stroke-width="1" opacity="0" d="M 17.5 17 Q 21.7 15.9 20 20 Q 17.3 18.9 18 21.5 L 17.5 23 L 20.5 22 L 21 23.5 Q 10.1 27.6 2.5 35 L 0 35 L 0 30.5 Q 3 31.5 2 26.5 Q 3.6 23.5 9 25 Q 7.9 22.3 10.5 23 L 17.5 17 Z " /><path fill="rgb(0,0,0)" stroke="rgb(0,0,0)" stroke-width="1" opacity="0" d="M 0.5 18 L 1 21.5 L 0 21.5 L 0.5 18 Z " /><path fill="rgb(0,0,0)" stroke="rgb(0,0,0)" stroke-width="1" opacity="0" d="M 32.5 22 L 46.5 22 L 53 26.5 L 53 35 L 41 35 Q 42.5 31.3 39.5 32 Q 38.3 29.7 33.5 31 L 30.5 29 L 29 32 L 39 34.5 L 7.5 35 L 7.5 34 L 26.5 24 Q 31.1 26.9 39 26.5 L 36 27 Q 34.6 30.7 40.5 29 L 42 25 L 32.5 23 L 32.5 22 Z " /><path fill="rgb(228,229,228)" stroke="rgb(228,229,228)" stroke-width="1" opacity="0.08627450980392157" d="M 25.5 3 L 23.5 6 L 25.5 3 Z " /><path fill="rgb(228,229,228)" stroke="rgb(228,229,228)" stroke-width="1" opacity="0.08627450980392157" d="M 26.5 7 L 25.5 9 L 26.5 7 Z " /><path fill="rgb(228,229,228)" stroke="rgb(228,229,228)" stroke-width="1" opacity="0.08627450980392157" d="M 32.5 10 L 31.5 12 L 32.5 10 Z " /><path fill="rgb(228,229,228)" stroke="rgb(228,229,228)" stroke-width="1" opacity="0.08627450980392157" d="M 28.5 11 L 26.5 14 L 28.5 11 Z " /><path fill="rgb(228,229,228)" stroke="rgb(228,229,228)" stroke-width="1" opacity="0.08627450980392157" d="M 9.5 13 L 10.5 15 L 9.5 13 Z " /><path fill="rgb(228,229,228)" stroke="rgb(228,229,228)" stroke-width="1" opacity="0.08627450980392157" d="M 14.5 14 L 17 14.5 Q 14.9 17.8 14.5 14 Z " /><path fill="rgb(228,229,228)" stroke="rgb(228,229,228)" stroke-width="1" opacity="0.08627450980392157" d="M 39.5 19 L 44 19.5 L 39.5 20 L 39.5 19 Z " /><path fill="rgb(228,229,228)" stroke="rgb(228,229,228)" stroke-width="1" opacity="0.08627450980392157" d="M 31.5 22 L 35 23.5 L 30.5 24 L 31.5 22 Z " /><path fill="rgb(228,229,228)" stroke="rgb(228,229,228)" stroke-width="1" opacity="0.08627450980392157" d="M 41.5 27 L 40.5 29 L 41.5 27 Z " /><path fill="rgb(235,195,174)" stroke="rgb(235,195,174)" stroke-width="1" opacity="0.9215686274509803" d="M 25.5 1 L 23.5 4 L 19 2.5 L 25.5 1 Z " /><path fill="rgb(235,195,174)" stroke="rgb(235,195,174)" stroke-width="1" opacity="0.9215686274509803" d="M 17.5 3 L 16.5 5 L 17.5 3 Z " /><path fill="rgb(235,195,174)" stroke="rgb(235,195,174)" stroke-width="1" opacity="0.9215686274509803" d="M 33.5 3 L 37 7.5 L 34.5 6 Q 31.4 6.7 33.5 3 Z " /><path fill="rgb(235,195,174)" stroke="rgb(235,195,174)" stroke-width="1" opacity="0.9215686274509803" d="M 14.5 5 L 11.5 9 L 9 10.5 L 8.5 12 L 7 11.5 L 8 13.5 L 6 13.5 L 7 15.5 L 6 21 L 11.5 19 L 7.5 24 L 5.5 23 L 2 24 L 0.5 29 L 0 25.5 Q 3.3 22.3 3 15.5 L 0 16.5 L 3.5 12 L 5 11.5 L 1 10.5 L 8.5 7 L 11.5 8 L 14.5 5 Z " /><path fill="rgb(235,195,174)" stroke="rgb(235,195,174)" stroke-width="1" opacity="0.9215686274509803" d="M 18.5 7 L 17.5 9 L 18.5 7 Z " /><path fill="rgb(235,195,174)" stroke="rgb(235,195,174)" stroke-width="1" opacity="0.9215686274509803" d="M 38.5 8 Q 41.3 9.3 39 10.5 L 40 17.5 L 35.5 21 L 37.5 18 Q 40.1 18.8 39 15.5 Q 36.2 13.7 38.5 8 Z " /><path fill="rgb(235,195,174)" stroke="rgb(235,195,174)" stroke-width="1" opacity="0.9215686274509803" d="M 31.5 9 L 30.5 11 L 31.5 9 Z " /><path fill="rgb(235,195,174)" stroke="rgb(235,195,174)" stroke-width="1" opacity="0.9215686274509803" d="M 18.5 10 L 15.5 14 L 14.5 12 L 12 13.5 Q 13.7 9.2 15.5 12 L 18.5 10 Z " /><path fill="rgb(235,195,174)" stroke="rgb(235,195,174)" stroke-width="1" opacity="0.9215686274509803" d="M 43 10 L 48 12.5 L 53 19.5 L 48 15.5 L 47 12 Q 43.2 10.5 44 13.5 L 45 18 L 48 19.5 L 47.5 21 L 47 19 L 44 17.5 L 43 10 Z " /><path fill="rgb(235,195,174)" stroke="rgb(235,195,174)" stroke-width="1" opacity="0.9215686274509803" d="M 21.5 14 L 23.5 17 L 27 14.5 L 22.5 23 L 21 19.5 L 22 17.5 L 21.5 14 Z " /><path fill="rgb(237,210,196)" stroke="rgb(237,210,196)" stroke-width="1" opacity="0.14901960784313725" d="M 20.5 1 L 23 1.5 L 20.5 2 L 20.5 1 Z " /><path fill="rgb(237,210,196)" stroke="rgb(237,210,196)" stroke-width="1" opacity="0.14901960784313725" d="M 27.5 1 L 32 1.5 L 27.5 2 L 27.5 1 Z " /><path fill="rgb(237,210,196)" stroke="rgb(237,210,196)" stroke-width="1" opacity="0.14901960784313725" d="M 21.5 3 L 22 4.5 L 20 5.5 L 21.5 3 Z " /><path fill="rgb(237,210,196)" stroke="rgb(237,210,196)" stroke-width="1" opacity="0.14901960784313725" d="M 14.5 4 L 13.5 6 L 14.5 4 Z " /><path fill="rgb(237,210,196)" stroke="rgb(237,210,196)" stroke-width="1" opacity="0.14901960784313725" d="M 16.5 5 L 15.5 7 L 16.5 5 Z " /><path fill="rgb(237,210,196)" stroke="rgb(237,210,196)" stroke-width="1" opacity="0.14901960784313725" d="M 19.5 7 L 18.5 9 L 19.5 7 Z " /><path fill="rgb(237,210,196)" stroke="rgb(237,210,196)" stroke-width="1" opacity="0.14901960784313725" d="M 22.5 8 L 19.5 12 L 22.5 8 Z " /><path fill="rgb(237,210,196)" stroke="rgb(237,210,196)" stroke-width="1" opacity="0.14901960784313725" d="M 11.5 9 L 10.5 11 L 11.5 9 Z " /><path fill="rgb(237,210,196)" stroke="rgb(237,210,196)" stroke-width="1" opacity="0.14901960784313725" d="M 15.5 9 L 13.5 12 L 15.5 9 Z " /><path fill="rgb(237,210,196)" stroke="rgb(237,210,196)" stroke-width="1" opacity="0.14901960784313725" d="M 37.5 9 L 38 14 L 36 13.5 L 37.5 9 Z " /><path fill="rgb(237,210,196)" stroke="rgb(237,210,196)" stroke-width="1" opacity="0.14901960784313725" d="M 40.5 10 L 43 11.5 L 41.5 11 L 40.5 10 Z " /><path fill="rgb(237,210,196)" stroke="rgb(237,210,196)" stroke-width="1" opacity="0.14901960784313725" d="M 30.5 12 L 27.5 17 L 29 17.5 L 27.5 18 L 25 17.5 L 30.5 12 Z " /><path fill="rgb(237,210,196)" stroke="rgb(237,210,196)" stroke-width="1" opacity="0.14901960784313725" d="M 17.5 14 L 20 14.5 L 17.5 15 L 17.5 14 Z " /><path fill="rgb(237,210,196)" stroke="rgb(237,210,196)" stroke-width="1" opacity="0.14901960784313725" d="M 25.5 14 L 24.5 16 L 23 15.5 L 25.5 14 Z " /><path fill="rgb(237,210,196)" stroke="rgb(237,210,196)" stroke-width="1" opacity="0.14901960784313725" d="M 42.5 14 L 43.5 16 L 42.5 14 Z " /><path fill="rgb(237,210,196)" stroke="rgb(237,210,196)" stroke-width="1" opacity="0.14901960784313725" d="M 18.5 16 L 21 16.5 L 18.5 17 L 18.5 16 Z " /><path fill="rgb(237,210,196)" stroke="rgb(237,210,196)" stroke-width="1" opacity="0.14901960784313725" d="M 38.5 16 L 37.5 18 L 38.5 16 Z " /><path fill="rgb(237,210,196)" stroke="rgb(237,210,196)" stroke-width="1" opacity="0.14901960784313725" d="M 40.5 17 L 39.5 19 L 40.5 17 Z " /><path fill="rgb(237,210,196)" stroke="rgb(237,210,196)" stroke-width="1" opacity="0.14901960784313725" d="M 14.5 18 L 13.5 20 L 14.5 18 Z " /><path fill="rgb(237,210,196)" stroke="rgb(237,210,196)" stroke-width="1" opacity="0.14901960784313725" d="M 30.5 18 L 29.5 20 L 30.5 18 Z " /><path fill="rgb(230,185,162)" stroke="rgb(230,185,162)" stroke-width="1" opacity="0.7686274509803922" d="M 25.5 2 L 28 2.5 L 25.5 3 L 25.5 2 Z " /><path fill="rgb(230,185,162)" stroke="rgb(230,185,162)" stroke-width="1" opacity="0.7686274509803922" d="M 29.5 2 L 31.5 3 L 33 2.5 Q 33.8 4.8 31.5 4 L 29.5 2 Z " /><path fill="rgb(230,185,162)" stroke="rgb(230,185,162)" stroke-width="1" opacity="0.7686274509803922" d="M 15.5 5 L 14.5 7 L 15.5 5 Z " /><path fill="rgb(230,185,162)" stroke="rgb(230,185,162)" stroke-width="1" opacity="0.7686274509803922" d="M 30.5 5 L 31 6.5 L 26 10.5 Q 26.8 12.8 24.5 12 L 21.5 14 L 21.5 13 L 30 7 L 30.5 5 Z " /><path fill="rgb(230,185,162)" stroke="rgb(230,185,162)" stroke-width="1" opacity="0.7686274509803922" d="M 21.5 8 L 17.5 13 L 21.5 8 Z " /><path fill="rgb(230,185,162)" stroke="rgb(230,185,162)" stroke-width="1" opacity="0.7686274509803922" d="M 39.5 8 L 43 9.5 L 40.5 10 L 39.5 8 Z " /><path fill="rgb(230,185,162)" stroke="rgb(230,185,162)" stroke-width="1" opacity="0.7686274509803922" d="M 10.5 9 L 9.5 11 L 10.5 9 Z " /><path fill="rgb(230,185,162)" stroke="rgb(230,185,162)" stroke-width="1" opacity="0.7686274509803922" d="M 31.5 10 L 25.5 17 L 29 12.5 Q 28.3 10.3 30.5 11 L 31.5 10 Z " /><path fill="rgb(230,185,162)" stroke="rgb(230,185,162)" stroke-width="1" opacity="0.7686274509803922" d="M 36.5 14 L 35.5 16 L 29.5 19 L 30.5 17 L 36.5 14 Z " /><path fill="rgb(230,185,162)" stroke="rgb(230,185,162)" stroke-width="1" opacity="0.7686274509803922" d="M 17.5 15 L 21 15.5 L 12.5 19 L 12.5 18 L 17.5 15 Z " /><path fill="rgb(230,185,162)" stroke="rgb(230,185,162)" stroke-width="1" opacity="0.7686274509803922" d="M 6.5 16 L 7 18.5 L 6 18.5 L 6.5 16 Z " /><path fill="rgb(230,185,162)" stroke="rgb(230,185,162)" stroke-width="1" opacity="0.7686274509803922" d="M 25.5 18 L 27 18.5 L 24.5 20 L 25.5 18 Z " /><path fill="rgb(230,185,162)" stroke="rgb(230,185,162)" stroke-width="1" opacity="0.7686274509803922" d="M 20.5 20 L 19.5 22 L 20.5 20 Z " /><path fill="rgb(230,185,162)" stroke="rgb(230,185,162)" stroke-width="1" opacity="0.7686274509803922" d="M 22.5 23 L 23 25 L 21 24.5 L 22.5 23 Z " /><path fill="rgb(250,242,237)" stroke="rgb(250,242,237)" stroke-width="1" opacity="0.34901960784313724" d="M 18.5 9 L 17.5 11 L 18.5 9 Z " /><path fill="rgb(250,242,237)" stroke="rgb(250,242,237)" stroke-width="1" opacity="0.34901960784313724" d="M 7.5 11 L 8 12.5 L 6.5 15 L 6 13.5 L 7.5 11 Z " /><path fill="rgb(250,242,237)" stroke="rgb(250,242,237)" stroke-width="1" opacity="0.34901960784313724" d="M 2.5 15 L 3 17.5 L 1.5 22 L 0 17.5 L 2 17 L 2.5 15 Z " /><path fill="rgb(250,242,237)" stroke="rgb(250,242,237)" stroke-width="1" opacity="0.34901960784313724" d="M 8.5 15 Q 11.3 16.3 9 17.5 L 7.5 20 L 7 16.5 L 8.5 15 Z " /><path fill="rgb(250,242,237)" stroke="rgb(250,242,237)" stroke-width="1" opacity="0.34901960784313724" d="M 38.5 19 L 37.5 21 L 38.5 19 Z " /><path fill="rgb(250,242,237)" stroke="rgb(250,242,237)" stroke-width="1" opacity="0.34901960784313724" d="M 5.5 23 L 6.5 25 L 3 24.5 L 5.5 23 Z " /><path fill="rgb(250,242,237)" stroke="rgb(250,242,237)" stroke-width="1" opacity="0.34901960784313724" d="M 1.5 28 L 0.5 30 L 1.5 28 Z " /><path fill="rgb(184,213,224)" stroke="rgb(184,213,224)" stroke-width="1" opacity="0.592156862745098" d="M 38.5 20 L 45 20.5 L 38.5 21 L 38.5 20 Z " /><path fill="rgb(184,213,224)" stroke="rgb(184,213,224)" stroke-width="1" opacity="0.592156862745098" d="M 46.5 20 L 53 23 L 52.5 25 L 46 22 L 46.5 20 Z " /><path fill="rgb(184,213,224)" stroke="rgb(184,213,224)" stroke-width="1" opacity="0.592156862745098" d="M 30.5 21 L 35 21.5 Q 30.4 20.9 29 23.5 L 41 25 Q 42.5 28.8 39.5 28 L 39.5 26 L 29.5 25 L 26.5 23 L 23.5 25 L 23 23 L 30.5 21 Z " /><path fill="rgb(184,213,224)" stroke="rgb(184,213,224)" stroke-width="1" opacity="0.592156862745098" d="M 20.5 25 L 22 25.5 L 4.5 35 L 6.5 32 L 20.5 25 Z " /><path fill="rgb(184,213,224)" stroke="rgb(184,213,224)" stroke-width="1" opacity="0.592156862745098" d="M 36.5 32 L 40 33.5 L 38.5 33 Q 35.5 33.5 36.5 32 Z " /><path fill="rgb(254,254,255)" stroke="rgb(254,254,255)" stroke-width="1" opacity="0.023529411764705882" d="M 27.5 3 Q 30.8 1.9 30 4.5 L 28.5 4 L 27.5 3 Z " /><path fill="rgb(254,254,255)" stroke="rgb(254,254,255)" stroke-width="1" opacity="0.023529411764705882" d="M 17.5 6 L 16.5 8 L 17.5 6 Z " /><path fill="rgb(254,254,255)" stroke="rgb(254,254,255)" stroke-width="1" opacity="0.023529411764705882" d="M 20.5 6 L 21 7.5 L 19 8.5 L 20.5 6 Z " /><path fill="rgb(254,254,255)" stroke="rgb(254,254,255)" stroke-width="1" opacity="0.023529411764705882" d="M 40.5 14 L 41.5 16 L 40.5 14 Z " /><path fill="rgb(254,254,255)" stroke="rgb(254,254,255)" stroke-width="1" opacity="0.023529411764705882" d="M 12.5 20 L 11.5 22 L 12.5 20 Z " /><path fill="rgb(254,254,255)" stroke="rgb(254,254,255)" stroke-width="1" opacity="0.023529411764705882" d="M 40.5 21 L 43 21.5 L 40.5 22 L 40.5 21 Z " /><path fill="rgb(254,254,255)" stroke="rgb(254,254,255)" stroke-width="1" opacity="0.023529411764705882" d="M 30.5 29 L 32 29.5 L 30 30 L 29.5 32 L 29 30.5 L 30.5 29 Z " /></svg>